<?xml version="1.0" standalone="no"?>
<!DOCTYPE svg PUBLIC "-//W3C//DTD SVG 20010904//EN"
 "http://www.w3.org/TR/2001/REC-SVG-20010904/DTD/svg10.dtd">
<svg version="1.0" xmlns="http://www.w3.org/2000/svg" width="550.000000pt" height="600.000000pt" viewBox="0 0 210.000000 194.000000" preserveAspectRatio="xMidYMid meet">
  <g transform="translate(0.000000,194.000000) scale(0.100000,-0.100000)" fill="#9F1239" stroke="none">
    <path d="M1245 1778 c-85 -30 -119 -89 -95 -164 7 -21 95 -153 195 -294 100
-140 236 -332 303 -427 67 -94 134 -181 149 -192 45 -37 138 -24 196 27 21 19
23 89 3 137 -12 28 -344 499 -575 815 -76 104 -107 122 -176 98z"/>
    <path d="M1595 1726 c-37 -16 -53 -35 -64 -74 -11 -37 -11 -38 160 -270 74
-99 160 -216 192 -261 62 -85 79 -97 132 -87 49 10 85 42 85 77 0 38 -9 54
-81 155 -33 44 -59 83 -59 85 0 3 30 25 68 49 37 24 69 45 71 47 10 7 -122
192 -133 186 -6 -3 -39 -26 -73 -50 -34 -23 -64 -43 -67 -43 -3 0 -37 42 -76
94 -83 112 -94 119 -155 92z"/>
    <path d="M624 1331 c-22 -10 -50 -31 -62 -46 -43 -55 -27 -113 71 -248 40 -56
178 -249 306 -430 128 -180 245 -336 258 -347 47 -37 175 -13 202 38 17 32 13
92 -9 136 -42 86 -626 891 -656 905 -35 15 -62 14 -110 -8z"/>
    <path d="M1183 1117 c-78 -56 -142 -105 -142 -108 -1 -5 127 -169 154 -198 12
-12 36 3 159 93 l145 107 -76 104 c-41 58 -80 105 -87 104 -6 0 -75 -47 -153
-102z"/>
    <path d="M503 960 c-75 -34 -69 -73 33 -212 35 -49 64 -90 64 -92 0 -2 -31
-24 -70 -50 -38 -25 -70 -49 -70 -52 0 -18 125 -182 134 -177 6 4 39 26 72 50
34 24 64 43 67 43 2 0 33 -39 67 -87 35 -49 70 -94 78 -100 51 -42 152 23 152
97 0 12 -44 80 -97 153 -53 73 -143 196 -201 275 -57 78 -114 149 -125 157
-28 20 -53 19 -104 -5z"/>
  </g>
</svg>
